<svg xmlns="http://www.w3.org/2000/svg" xmlns:xlink="http://www.w3.org/1999/xlink" width="1080" zoomAndPan="magnify" viewBox="0 0 810 809.999993" height="1080" preserveAspectRatio="xMidYMid meet" version="1.0"><defs><clipPath id="45aabd2c7c"><path d="M 58.214844 97 L 759.464844 97 L 759.464844 608 L 58.214844 608 Z M 58.214844 97 " clip-rule="nonzero"/></clipPath><clipPath id="dcfd500d50"><path d="M 263 690 L 555 690 L 555 771.75 L 263 771.75 Z M 263 690 " clip-rule="nonzero"/></clipPath><clipPath id="7dcd745847"><path d="M 58.214844 516 L 759.464844 516 L 759.464844 541 L 58.214844 541 Z M 58.214844 516 " clip-rule="nonzero"/></clipPath></defs><rect x="-81" width="972" fill="#ffffff" y="-80.999999" height="971.999992" fill-opacity="1"/><rect x="-81" width="972" fill="#ffffff" y="-80.999999" height="971.999992" fill-opacity="1"/><path fill="#196364" d="M 606.949219 487.765625 C 604.660156 487.765625 602.382812 487.113281 600.402344 485.832031 C 583.46875 474.875 571.332031 451.667969 565.605469 438.808594 C 556.609375 418.605469 551.242188 397.074219 551.242188 381.207031 C 551.242188 357.367188 558.097656 344.894531 568.554688 328.589844 C 570.773438 325.132812 574.59375 323.042969 578.703125 323.042969 L 624.207031 323.042969 C 628.03125 323.042969 631.628906 324.859375 633.902344 327.9375 C 643.316406 340.679688 649.195312 353.492188 651.382812 366.023438 C 652.582031 372.878906 652.617188 379.347656 651.488281 385.257812 C 650.28125 399.660156 642.765625 410.941406 636.117188 420.910156 C 634.5 423.339844 632.96875 425.636719 631.515625 427.976562 C 621.605469 443.9375 620.898438 453.785156 620.078125 465.195312 C 619.800781 469.074219 619.511719 473.085938 618.875 477.449219 C 618.28125 481.511719 615.664062 484.992188 611.925781 486.6875 C 610.339844 487.410156 608.640625 487.765625 606.949219 487.765625 Z M 585.351562 347.15625 C 578.765625 357.894531 575.347656 365.976562 575.347656 381.210938 C 575.347656 393.675781 580.054688 411.988281 587.628906 429 C 590.769531 436.050781 594.214844 442.484375 597.765625 448.007812 C 599.449219 438.851562 602.921875 428.324219 611.039062 415.253906 C 612.691406 412.589844 614.402344 410.023438 616.058594 407.542969 C 621.890625 398.789062 626.929688 391.230469 627.496094 382.871094 C 627.550781 382.03125 627.679688 381.398438 627.769531 380.933594 C 628.476562 377.417969 629.640625 365.226562 617.90625 347.152344 Z M 651.546875 384.496094 C 651.546875 384.5 651.546875 384.503906 651.546875 384.507812 C 651.546875 384.507812 651.546875 384.503906 651.546875 384.496094 Z M 651.546875 384.496094 " fill-opacity="1" fill-rule="evenodd"/><path fill="#196364" d="M 624.21875 347.15625 C 623.402344 347.15625 622.578125 347.074219 621.746094 346.898438 C 615.230469 345.539062 611.046875 339.152344 612.410156 332.636719 L 618.070312 305.507812 L 584.84375 305.503906 L 590.503906 332.636719 C 591.863281 339.152344 587.679688 345.539062 581.164062 346.898438 C 574.648438 348.257812 568.261719 344.078125 566.898438 337.5625 L 558.214844 295.914062 C 557.472656 292.363281 558.371094 288.664062 560.660156 285.847656 C 562.949219 283.035156 566.382812 281.398438 570.011719 281.398438 L 632.894531 281.402344 C 636.523438 281.402344 639.960938 283.035156 642.25 285.851562 C 644.539062 288.667969 645.4375 292.363281 644.695312 295.917969 L 636.003906 337.5625 C 634.820312 343.25 629.804688 347.15625 624.21875 347.15625 Z M 624.21875 347.15625 " fill-opacity="1" fill-rule="evenodd"/><path fill="#196364" d="M 632.890625 305.507812 C 626.417969 305.507812 621.066406 300.375 620.851562 293.859375 L 612.160156 35.25 C 612.15625 35.117188 612.152344 34.980469 612.152344 34.847656 C 612.152344 28.949219 607.355469 24.148438 601.457031 24.148438 C 595.554688 24.148438 590.757812 28.949219 590.757812 34.847656 C 590.757812 34.984375 590.753906 35.117188 590.75 35.25 L 582.0625 293.855469 C 581.839844 300.511719 576.246094 305.71875 569.609375 305.5 C 562.957031 305.273438 557.746094 299.699219 557.964844 293.046875 L 566.648438 34.625 C 566.769531 15.535156 582.335938 0.0390625 601.457031 0.0390625 C 620.574219 0.0390625 636.140625 15.53125 636.261719 34.625 L 644.945312 293.050781 C 645.171875 299.703125 639.957031 305.277344 633.300781 305.5 C 633.164062 305.507812 633.027344 305.507812 632.890625 305.507812 Z M 632.890625 305.507812 " fill-opacity="1" fill-rule="evenodd"/><g clip-path="url(#45aabd2c7c)"><path fill="#196364" d="M 723.070312 607.671875 L 94.386719 607.671875 C 74.507812 607.671875 58.332031 591.496094 58.332031 571.613281 L 58.332031 133.855469 C 58.332031 113.976562 74.507812 97.804688 94.386719 97.804688 L 576.179688 97.804688 C 582.835938 97.804688 588.234375 103.203125 588.234375 109.859375 C 588.234375 116.515625 582.835938 121.914062 576.179688 121.914062 L 94.386719 121.914062 C 87.800781 121.914062 82.4375 127.269531 82.4375 133.855469 L 82.4375 571.613281 C 82.4375 578.203125 87.796875 583.5625 94.386719 583.5625 L 723.070312 583.5625 C 729.660156 583.5625 735.019531 578.203125 735.019531 571.613281 L 735.019531 133.855469 C 735.019531 127.269531 729.660156 121.914062 723.070312 121.914062 L 626.726562 121.914062 C 620.066406 121.914062 614.671875 116.515625 614.671875 109.859375 C 614.671875 103.203125 620.066406 97.804688 626.726562 97.804688 L 723.070312 97.804688 C 742.953125 97.804688 759.128906 113.976562 759.128906 133.855469 L 759.128906 571.613281 C 759.128906 591.496094 742.953125 607.671875 723.070312 607.671875 Z M 723.070312 607.671875 " fill-opacity="1" fill-rule="evenodd"/></g><path fill="#196364" d="M 343.015625 714.5 C 341.964844 714.5 340.898438 714.363281 339.835938 714.074219 C 333.414062 712.324219 329.628906 705.695312 331.378906 699.273438 L 360.519531 592.445312 C 362.273438 586.019531 368.898438 582.234375 375.324219 583.988281 C 381.746094 585.738281 385.53125 592.367188 383.78125 598.789062 L 354.636719 705.617188 C 353.175781 710.976562 348.316406 714.5 343.015625 714.5 Z M 343.015625 714.5 " fill-opacity="1" fill-rule="evenodd"/><path fill="#196364" d="M 474.449219 714.5 C 469.148438 714.5 464.289062 710.976562 462.828125 705.617188 L 433.785156 599.132812 C 433.449219 598.019531 433.265625 596.839844 433.265625 595.613281 C 433.265625 588.957031 438.660156 583.558594 445.316406 583.558594 C 450.75 583.558594 455.519531 587.195312 456.949219 592.441406 L 486.085938 699.269531 C 487.835938 705.691406 484.050781 712.320312 477.628906 714.070312 C 476.570312 714.363281 475.5 714.5 474.449219 714.5 Z M 474.449219 714.5 " fill-opacity="1" fill-rule="evenodd"/><g clip-path="url(#dcfd500d50)"><path fill="#196364" d="M 542.183594 771.5 L 275.28125 771.5 C 268.625 771.5 263.230469 766.101562 263.230469 759.445312 L 263.230469 729.707031 C 263.230469 708.027344 280.867188 690.390625 302.542969 690.390625 L 514.921875 690.390625 C 536.601562 690.390625 554.238281 708.027344 554.238281 729.707031 L 554.238281 759.445312 C 554.238281 766.101562 548.84375 771.5 542.183594 771.5 Z M 287.335938 747.390625 L 530.132812 747.390625 L 530.132812 729.703125 C 530.132812 721.320312 523.308594 714.496094 514.921875 714.496094 L 302.542969 714.496094 C 294.160156 714.496094 287.335938 721.320312 287.335938 729.703125 Z M 287.335938 747.390625 " fill-opacity="1" fill-rule="evenodd"/></g><g clip-path="url(#7dcd745847)"><path fill="#196364" d="M 747.078125 540.195312 L 70.386719 540.195312 C 63.730469 540.195312 58.332031 534.800781 58.332031 528.144531 C 58.332031 521.484375 63.730469 516.089844 70.386719 516.089844 L 747.074219 516.089844 C 753.730469 516.089844 759.132812 521.484375 759.132812 528.144531 C 759.132812 534.800781 753.738281 540.195312 747.078125 540.195312 Z M 747.078125 540.195312 " fill-opacity="1" fill-rule="evenodd"/></g><path fill="#196364" d="M 690.023438 540.195312 C 683.367188 540.195312 677.972656 534.800781 677.972656 528.144531 L 677.972656 175.777344 L 628.542969 175.777344 C 621.882812 175.777344 616.488281 170.378906 616.488281 163.722656 C 616.488281 157.066406 621.882812 151.667969 628.542969 151.667969 L 690.023438 151.667969 C 696.683594 151.667969 702.078125 157.066406 702.078125 163.722656 L 702.078125 528.144531 C 702.078125 534.800781 696.679688 540.195312 690.023438 540.195312 Z M 690.023438 540.195312 " fill-opacity="1" fill-rule="evenodd"/><path fill="#196364" d="M 127.445312 540.195312 C 120.789062 540.195312 115.390625 534.800781 115.390625 528.144531 L 115.390625 163.722656 C 115.390625 157.066406 120.789062 151.667969 127.445312 151.667969 L 574.371094 151.667969 C 581.027344 151.667969 586.421875 157.066406 586.421875 163.722656 C 586.421875 170.378906 581.027344 175.777344 574.371094 175.777344 L 139.5 175.777344 L 139.5 528.144531 C 139.5 534.800781 134.101562 540.195312 127.445312 540.195312 Z M 127.445312 540.195312 " fill-opacity="1" fill-rule="evenodd"/><path fill="#196364" d="M 510.96875 284.796875 L 181.003906 284.796875 C 174.347656 284.796875 168.949219 279.398438 168.949219 272.742188 L 168.949219 216.15625 C 168.949219 209.496094 174.347656 204.101562 181.003906 204.101562 L 510.96875 204.101562 C 517.628906 204.101562 523.023438 209.496094 523.023438 216.15625 L 523.023438 272.742188 C 523.023438 279.398438 517.628906 284.796875 510.96875 284.796875 Z M 193.058594 260.6875 L 498.917969 260.6875 L 498.917969 228.207031 L 193.058594 228.207031 Z M 193.058594 260.6875 " fill-opacity="1" fill-rule="evenodd"/><path fill="#196364" d="M 510.96875 487.765625 L 389.917969 487.765625 C 383.261719 487.765625 377.863281 482.367188 377.863281 475.710938 L 377.863281 318.085938 C 377.863281 311.425781 383.261719 306.03125 389.917969 306.03125 L 510.96875 306.03125 C 517.628906 306.03125 523.023438 311.425781 523.023438 318.085938 L 523.023438 475.710938 C 523.023438 482.371094 517.628906 487.765625 510.96875 487.765625 Z M 401.972656 463.65625 L 498.917969 463.65625 L 498.917969 330.136719 L 401.972656 330.136719 Z M 401.972656 463.65625 " fill-opacity="1" fill-rule="evenodd"/><path fill="#196364" d="M 331.136719 376.386719 L 181.003906 376.386719 C 174.347656 376.386719 168.949219 370.992188 168.949219 364.332031 L 168.949219 318.085938 C 168.949219 311.429688 174.347656 306.03125 181.003906 306.03125 L 331.136719 306.03125 C 337.792969 306.03125 343.1875 311.429688 343.1875 318.085938 L 343.1875 364.332031 C 343.1875 370.992188 337.792969 376.386719 331.136719 376.386719 Z M 193.058594 352.28125 L 319.078125 352.28125 L 319.078125 330.140625 L 193.058594 330.140625 Z M 193.058594 352.28125 " fill-opacity="1" fill-rule="evenodd"/><path fill="#196364" d="M 331.136719 487.765625 L 181.003906 487.765625 C 174.347656 487.765625 168.949219 482.367188 168.949219 475.710938 L 168.949219 408.8125 C 168.949219 402.15625 174.347656 396.757812 181.003906 396.757812 L 331.136719 396.757812 C 337.792969 396.757812 343.1875 402.15625 343.1875 408.8125 L 343.1875 475.714844 C 343.1875 482.371094 337.792969 487.765625 331.136719 487.765625 Z M 193.058594 463.65625 L 319.078125 463.65625 L 319.078125 420.867188 L 193.058594 420.867188 Z M 193.058594 463.65625 " fill-opacity="1" fill-rule="evenodd"/></svg>