<svg xmlns="http://www.w3.org/2000/svg" xmlns:xlink="http://www.w3.org/1999/xlink" width="1080" zoomAndPan="magnify" viewBox="0 0 810 809.999993" height="1080" preserveAspectRatio="xMidYMid meet" version="1.0"><rect x="-81" width="972" fill="#ffffff" y="-80.999999" height="971.999992" fill-opacity="1"/><rect x="-81" width="972" fill="#ffffff" y="-80.999999" height="971.999992" fill-opacity="1"/><path fill="#196364" d="M 528.550781 656.367188 C 530.714844 661.164062 528.578125 666.808594 523.78125 668.96875 C 486.347656 685.839844 446.382812 694.394531 405 694.394531 C 371.953125 694.394531 339.789062 688.929688 309.097656 678.128906 L 318.644531 698.398438 C 320.886719 703.160156 318.847656 708.835938 314.085938 711.078125 C 312.773438 711.695312 311.390625 711.992188 310.03125 711.992188 C 306.457031 711.992188 303.027344 709.96875 301.402344 706.519531 L 281.527344 664.324219 C 280.449219 662.035156 280.324219 659.417969 281.179688 657.039062 C 282.035156 654.660156 283.800781 652.71875 286.085938 651.640625 L 328.28125 631.765625 C 333.042969 629.523438 338.722656 631.5625 340.964844 636.324219 C 343.207031 641.085938 341.164062 646.765625 336.40625 649.007812 L 313.914062 659.597656 C 343.035156 670.039062 373.585938 675.332031 405.003906 675.332031 C 443.667969 675.332031 480.996094 667.34375 515.949219 651.589844 C 520.746094 649.433594 526.390625 651.570312 528.550781 656.367188 Z M 271.878906 169.65625 C 312.261719 146.765625 358.292969 134.664062 405 134.664062 C 444.5 134.664062 483.503906 143.351562 519.027344 159.867188 L 495.722656 168.328125 C 490.777344 170.121094 488.222656 175.589844 490.019531 180.535156 C 491.425781 184.410156 495.082031 186.816406 498.976562 186.816406 C 500.054688 186.816406 501.152344 186.628906 502.226562 186.242188 L 546.070312 170.324219 C 551.019531 168.527344 553.574219 163.0625 551.777344 158.113281 L 535.859375 114.269531 C 534.0625 109.324219 528.597656 106.765625 523.652344 108.566406 C 518.703125 110.359375 516.148438 115.828125 517.945312 120.773438 L 525.609375 141.882812 C 487.96875 124.640625 446.734375 115.605469 405 115.605469 C 355.003906 115.605469 305.722656 128.5625 262.480469 153.078125 C 257.902344 155.671875 256.292969 161.488281 258.890625 166.066406 C 261.484375 170.644531 267.300781 172.25 271.878906 169.65625 Z M 654.625 448.945312 C 651.921875 444.433594 646.066406 442.96875 641.554688 445.675781 C 637.039062 448.378906 635.574219 454.234375 638.277344 458.746094 L 662.261719 498.753906 C 663.558594 500.921875 665.667969 502.484375 668.121094 503.097656 C 668.882812 503.289062 669.660156 503.382812 670.433594 503.382812 C 672.144531 503.382812 673.84375 502.921875 675.335938 502.027344 L 715.339844 478.042969 C 719.855469 475.339844 721.320312 469.484375 718.613281 464.972656 C 715.90625 460.457031 710.054688 458.992188 705.539062 461.699219 L 686.292969 473.238281 C 691.671875 450.996094 694.390625 428.132812 694.390625 405 C 694.390625 374.972656 689.808594 345.371094 680.773438 317.019531 C 679.175781 312.007812 673.8125 309.238281 668.800781 310.835938 C 663.785156 312.433594 661.015625 317.792969 662.613281 322.808594 C 671.054688 349.285156 675.332031 376.941406 675.332031 405 C 675.332031 427.140625 672.660156 449.007812 667.394531 470.253906 Z M 154.773438 364.597656 C 156.578125 367.511719 159.695312 369.113281 162.886719 369.113281 C 164.597656 369.113281 166.332031 368.652344 167.894531 367.683594 C 172.367188 364.914062 173.75 359.042969 170.980469 354.566406 L 146.433594 314.90625 C 145.101562 312.757812 142.972656 311.222656 140.511719 310.644531 C 138.050781 310.0625 135.460938 310.484375 133.3125 311.816406 L 93.652344 336.367188 C 89.175781 339.136719 87.796875 345.007812 90.566406 349.484375 C 93.335938 353.957031 99.207031 355.339844 103.683594 352.570312 L 122.765625 340.761719 C 118.011719 361.742188 115.605469 383.269531 115.605469 405 C 115.605469 436.433594 120.617188 467.347656 130.503906 496.886719 C 131.835938 500.875 135.550781 503.394531 139.539062 503.394531 C 140.539062 503.394531 141.558594 503.234375 142.5625 502.898438 C 147.554688 501.230469 150.246094 495.832031 148.574219 490.839844 C 139.34375 463.253906 134.664062 434.375 134.664062 405 C 134.664062 384.171875 137.035156 363.554688 141.703125 343.480469 Z M 81 264.371094 L 81 231.734375 C 81 202.257812 99.535156 176.601562 125.808594 166.324219 C 118.144531 157.292969 113.515625 145.652344 113.515625 132.957031 C 113.515625 104.308594 137.058594 81 166 81 C 194.941406 81 218.484375 104.308594 218.484375 132.960938 C 218.484375 145.652344 213.859375 157.292969 206.191406 166.328125 C 232.464844 176.601562 251 202.261719 251 231.738281 L 251 264.371094 C 251 272.230469 244.605469 278.621094 236.75 278.621094 L 95.25 278.621094 C 87.390625 278.617188 81 272.226562 81 264.371094 Z M 132.574219 132.960938 C 132.574219 151.101562 147.570312 165.863281 166 165.863281 C 184.433594 165.863281 199.425781 151.101562 199.425781 132.960938 C 199.425781 114.816406 184.433594 100.058594 166 100.058594 C 147.570312 100.058594 132.574219 114.816406 132.574219 132.960938 Z M 100.058594 259.558594 L 231.941406 259.558594 L 231.941406 231.738281 C 231.941406 205.640625 212.003906 183.652344 186.238281 180.898438 C 180.003906 183.484375 173.167969 184.921875 166 184.921875 C 158.832031 184.921875 151.992188 183.484375 145.761719 180.898438 C 119.996094 183.652344 100.058594 205.640625 100.058594 231.738281 Z M 729 231.738281 L 729 264.371094 C 729 272.230469 722.609375 278.621094 714.75 278.621094 L 573.246094 278.621094 C 565.390625 278.621094 559 272.230469 559 264.371094 L 559 231.738281 C 559 202.257812 577.53125 176.601562 603.804688 166.328125 C 596.140625 157.292969 591.511719 145.652344 591.511719 132.960938 C 591.515625 104.308594 615.058594 81 644 81 C 672.941406 81 696.488281 104.308594 696.488281 132.960938 C 696.488281 145.652344 691.859375 157.292969 684.195312 166.328125 C 710.464844 176.601562 729 202.257812 729 231.738281 Z M 610.574219 132.960938 C 610.574219 151.101562 625.570312 165.863281 644 165.863281 C 662.433594 165.863281 677.429688 151.101562 677.429688 132.960938 C 677.429688 114.820312 662.433594 100.058594 644 100.058594 C 625.570312 100.058594 610.574219 114.816406 610.574219 132.960938 Z M 709.941406 231.738281 C 709.941406 205.640625 690.003906 183.652344 664.238281 180.898438 C 658.007812 183.484375 651.171875 184.917969 644 184.917969 C 636.832031 184.917969 629.996094 183.484375 623.765625 180.894531 C 597.996094 183.652344 578.058594 205.636719 578.058594 231.734375 L 578.058594 259.558594 L 709.941406 259.558594 Z M 251 682.117188 L 251 714.753906 C 251 722.609375 244.609375 729 236.75 729 L 95.25 729 C 87.390625 729 81 722.609375 81 714.75 L 81 682.117188 C 81 652.640625 99.535156 626.980469 125.808594 616.707031 C 118.144531 607.671875 113.515625 596.03125 113.515625 583.339844 C 113.515625 554.6875 137.058594 531.378906 166 531.378906 C 194.941406 531.378906 218.488281 554.6875 218.488281 583.339844 C 218.488281 596.03125 213.859375 607.671875 206.195312 616.707031 C 232.464844 626.980469 251 652.640625 251 682.117188 Z M 132.574219 583.339844 C 132.574219 601.480469 147.570312 616.242188 166 616.242188 C 184.433594 616.242188 199.425781 601.484375 199.425781 583.339844 C 199.425781 565.199219 184.433594 550.4375 166 550.4375 C 147.570312 550.441406 132.574219 565.199219 132.574219 583.339844 Z M 231.941406 682.117188 C 231.941406 656.019531 212.003906 634.035156 186.238281 631.277344 C 180.003906 633.867188 173.167969 635.300781 166 635.300781 C 158.832031 635.300781 151.992188 633.867188 145.761719 631.28125 C 119.996094 634.035156 100.058594 656.019531 100.058594 682.117188 L 100.058594 709.941406 L 231.941406 709.941406 Z M 729 682.117188 L 729 714.753906 C 729 722.609375 722.609375 729 714.75 729 L 573.246094 729 C 565.390625 729 559 722.609375 559 714.753906 L 559 682.117188 C 559 652.640625 577.53125 626.984375 603.804688 616.707031 C 596.140625 607.675781 591.511719 596.035156 591.511719 583.339844 C 591.511719 554.691406 615.058594 531.382812 644 531.382812 C 672.941406 531.382812 696.484375 554.691406 696.484375 583.339844 C 696.484375 596.035156 691.859375 607.675781 684.191406 616.707031 C 710.464844 626.980469 729 652.640625 729 682.117188 Z M 610.574219 583.339844 C 610.574219 601.480469 625.570312 616.242188 644 616.242188 C 662.433594 616.242188 677.429688 601.484375 677.429688 583.339844 C 677.429688 565.199219 662.433594 550.4375 644 550.4375 C 625.570312 550.441406 610.574219 565.199219 610.574219 583.339844 Z M 709.941406 682.117188 C 709.941406 656.019531 690.003906 634.035156 664.238281 631.277344 C 658.007812 633.867188 651.171875 635.300781 644 635.300781 C 636.832031 635.300781 629.996094 633.867188 623.765625 631.277344 C 597.996094 634.035156 578.058594 656.019531 578.058594 682.117188 L 578.058594 709.941406 L 709.941406 709.941406 Z M 593.597656 405 C 593.597656 508.648438 509.277344 592.96875 405.628906 592.96875 C 301.980469 592.96875 217.65625 508.648438 217.65625 405 C 217.65625 301.351562 301.980469 217.03125 405.628906 217.03125 C 509.273438 217.03125 593.597656 301.351562 593.597656 405 Z M 395.46875 237.449219 C 374.296875 243.058594 355.507812 265.792969 342.46875 298.441406 C 359.273438 301.828125 377.15625 303.878906 395.46875 304.445312 Z M 336.132812 316.570312 C 329.050781 339.886719 324.652344 366.847656 323.847656 395.46875 L 395.46875 395.46875 L 395.46875 323.511719 C 374.988281 322.910156 354.9375 320.535156 336.132812 316.570312 Z M 323.855469 414.53125 C 324.636719 442.628906 328.871094 469.59375 336.128906 493.367188 C 354.933594 489.402344 374.988281 487.027344 395.46875 486.425781 L 395.46875 414.53125 Z M 342.5 511.488281 C 343.929688 515.042969 345.417969 518.519531 347 521.867188 C 360.230469 549.859375 377.320312 567.667969 395.46875 572.546875 L 395.46875 505.492188 C 377.167969 506.058594 359.292969 508.105469 342.5 511.488281 Z M 414.53125 572.855469 C 433.097656 568.492188 450.628906 550.605469 464.15625 522.082031 C 465.789062 518.640625 467.324219 515.066406 468.796875 511.40625 C 451.59375 507.96875 433.273438 505.925781 414.53125 505.441406 Z M 475.191406 493.160156 C 482.410156 469.441406 486.625 442.550781 487.402344 414.53125 L 414.53125 414.53125 L 414.53125 486.375 C 435.675781 486.871094 456.097656 489.179688 475.191406 493.160156 Z M 487.410156 395.46875 C 486.605469 366.929688 482.234375 340.050781 475.191406 316.78125 C 456.097656 320.765625 435.671875 323.070312 414.527344 323.566406 L 414.527344 395.46875 Z M 468.828125 298.53125 C 455.53125 265.183594 436.238281 242.15625 414.527344 237.128906 L 414.527344 304.5 C 433.285156 304.015625 451.617188 301.972656 468.828125 298.53125 Z M 487.511719 294.128906 C 499.632812 290.808594 510.976562 286.738281 521.261719 281.996094 C 503.644531 265.425781 482.488281 252.585938 459.054688 244.753906 C 466.761719 253.585938 473.839844 264.414062 480.082031 277.078125 C 482.757812 282.5 485.21875 288.210938 487.511719 294.128906 Z M 352.207031 244.753906 C 328.84375 252.558594 307.746094 265.34375 290.164062 281.839844 C 300.410156 286.589844 311.714844 290.667969 323.796875 294.003906 C 326.066406 288.148438 328.507812 282.492188 331.15625 277.121094 C 337.40625 264.4375 344.488281 253.597656 352.207031 244.753906 Z M 276.402344 296.355469 C 253.570312 323.472656 239.09375 357.847656 236.992188 395.46875 L 304.78125 395.46875 C 305.5625 365.832031 309.972656 337.339844 317.589844 312.027344 C 302.640625 307.832031 288.75 302.578125 276.402344 296.355469 Z M 236.992188 414.53125 C 239.09375 452.132812 253.550781 486.484375 276.359375 513.59375 C 288.722656 507.363281 302.628906 502.101562 317.601562 497.902344 C 310.109375 473.089844 305.566406 444.75 304.773438 414.527344 L 236.992188 414.527344 Z M 290.113281 528.113281 C 307.757812 544.679688 328.945312 557.503906 352.410156 565.3125 C 341.1875 552.476562 331.476562 535.667969 323.796875 515.929688 C 311.695312 519.269531 300.375 523.355469 290.113281 528.113281 Z M 458.894531 565.296875 C 482.40625 557.464844 503.632812 544.597656 521.296875 527.972656 C 511.007812 523.222656 499.660156 519.148438 487.53125 515.824219 C 479.855469 535.605469 470.136719 552.441406 458.894531 565.296875 Z M 535.039062 513.425781 C 557.765625 486.34375 572.167969 452.054688 574.265625 414.53125 L 506.480469 414.53125 C 505.695312 444.675781 501.183594 472.933594 493.746094 497.679688 C 508.660156 501.855469 522.535156 507.125 535.039062 513.425781 Z M 574.265625 395.46875 C 572.167969 357.929688 557.753906 323.628906 535.007812 296.542969 C 522.515625 302.832031 508.644531 308.097656 493.742188 312.265625 C 501.316406 337.519531 505.699219 365.925781 506.476562 395.46875 Z M 574.265625 395.46875 " fill-opacity="1" fill-rule="nonzero"/></svg>